<?xml version="1.0" encoding="UTF-8"?>
<!--Generator: Apple Native CoreSVG 175-->
<!DOCTYPE svg
PUBLIC "-//W3C//DTD SVG 1.1//EN"
       "http://www.w3.org/Graphics/SVG/1.1/DTD/svg11.dtd">
<svg version="1.1" xmlns="http://www.w3.org/2000/svg" xmlns:xlink="http://www.w3.org/1999/xlink" width="19.9202" height="19.9203">
 <g>
  <rect height="19.9203" opacity="0" width="19.9202" x="0" y="0"/>
  <path d="M9.95386 19.9203Q12.0042 19.9203 13.8042 19.1443Q15.6042 18.3683 16.98 16.9875Q18.3558 15.6066 19.138 13.8066Q19.9202 12.0066 19.9202 9.96638Q19.9202 7.92622 19.138 6.12621Q18.3558 4.3262 16.9749 2.94532Q15.5941 1.56445 13.7941 0.788483Q11.994 0.0125123 9.94368 0.0125123Q7.90578 0.0125123 6.10464 0.788483Q4.3035 1.56445 2.93393 2.94532Q1.56438 4.3262 0.782192 6.12621Q0 7.92622 0 9.96638Q0 12.0066 0.782192 13.8066Q1.56438 15.6066 2.93902 16.9875Q4.31368 18.3683 6.11483 19.1443Q7.91597 19.9203 9.95386 19.9203ZM9.95386 15.9814Q9.6458 15.9814 9.45384 15.7905Q9.26187 15.5997 9.26187 15.2995L9.26187 10.6944L9.3887 8.84222L7.55468 10.905L6.98351 11.5317Q6.89064 11.6347 6.76718 11.68Q6.64373 11.7253 6.48743 11.7253Q6.19973 11.7253 6.01683 11.5396Q5.83391 11.3539 5.83391 11.0537Q5.83391 10.7638 6.05024 10.5644L9.44646 7.09122Q9.656 6.8511 9.95386 6.8511Q10.211 6.8511 10.459 7.09122L13.8688 10.5554Q13.9923 10.6686 14.037 10.7983Q14.0818 10.928 14.0818 11.056Q14.0818 11.3437 13.9039 11.5345Q13.7261 11.7253 13.4384 11.7253Q13.3025 11.7253 13.174 11.68Q13.0454 11.6347 12.9446 11.5317L12.3213 10.8982L10.5168 8.8524L10.6255 10.6944L10.6255 15.2995Q10.6255 15.5997 10.4324 15.7905Q10.2393 15.9814 9.95386 15.9814ZM6.18279 6.08638Q5.88718 6.08638 5.7003 5.89442Q5.51342 5.70245 5.51342 5.41702Q5.51342 5.11916 5.7003 4.92605Q5.88718 4.73295 6.18279 4.73295L13.7431 4.73295Q14.0409 4.73295 14.2267 4.92605Q14.4124 5.11916 14.4124 5.41702Q14.4124 5.70245 14.2267 5.89442Q14.0409 6.08638 13.7431 6.08638Z" fill="rgba(0,0,0,0.85)"/>
 </g>
</svg>
