<?xml version="1.0" encoding="UTF-8"?>
<!--Generator: Apple Native CoreSVG 175-->
<!DOCTYPE svg
PUBLIC "-//W3C//DTD SVG 1.1//EN"
       "http://www.w3.org/Graphics/SVG/1.1/DTD/svg11.dtd">
<svg version="1.1" xmlns="http://www.w3.org/2000/svg" xmlns:xlink="http://www.w3.org/1999/xlink" width="19.9202" height="19.9203">
 <g>
  <rect height="19.9203" opacity="0" width="19.9202" x="0" y="0"/>
  <path d="M9.95386 19.9203Q12.0042 19.9203 13.8042 19.1443Q15.6042 18.3683 16.98 16.9875Q18.3558 15.6066 19.138 13.8066Q19.9202 12.0066 19.9202 9.96638Q19.9202 7.92622 19.138 6.12621Q18.3558 4.3262 16.9749 2.94532Q15.5941 1.56445 13.7941 0.788483Q11.994 0.0125123 9.94368 0.0125123Q7.90578 0.0125123 6.10464 0.788483Q4.3035 1.56445 2.93393 2.94532Q1.56438 4.3262 0.782192 6.12621Q0 7.92622 0 9.96638Q0 12.0066 0.782192 13.8066Q1.56438 15.6066 2.93902 16.9875Q4.31368 18.3683 6.11483 19.1443Q7.91597 19.9203 9.95386 19.9203ZM9.95386 13.1758Q9.65827 13.1758 9.44646 12.9436L6.05024 9.46249Q5.83391 9.23822 5.83391 8.97319Q5.83391 8.67306 6.01683 8.48731Q6.19973 8.30157 6.48743 8.30157Q6.64373 8.30157 6.76718 8.34687Q6.89064 8.39219 6.98351 8.50544L7.55468 9.12418L9.3887 11.1847L9.26187 9.33257L9.26187 4.72736Q9.26187 4.42723 9.45384 4.23639Q9.6458 4.04555 9.95386 4.04555Q10.2393 4.04555 10.4324 4.23639Q10.6255 4.42723 10.6255 4.72736L10.6255 9.33257L10.5168 11.1745L12.3213 9.13891L12.9446 8.50544Q13.0454 8.39219 13.174 8.34687Q13.3025 8.30157 13.4384 8.30157Q13.7261 8.30157 13.9039 8.49864Q14.0818 8.6957 14.0818 8.97092Q14.0818 9.10912 14.0319 9.2337Q13.9821 9.35829 13.8688 9.47948L10.459 12.9436Q10.237 13.1758 9.95386 13.1758ZM6.18279 15.3042Q5.88718 15.3042 5.7003 15.106Q5.51342 14.9078 5.51342 14.6121Q5.51342 14.3245 5.7003 14.1336Q5.88718 13.9428 6.18279 13.9428L13.7431 13.9428Q14.0409 13.9428 14.2267 14.1336Q14.4124 14.3245 14.4124 14.6121Q14.4124 14.9078 14.2267 15.106Q14.0409 15.3042 13.7431 15.3042Z" fill="rgba(0,0,0,0.85)"/>
 </g>
</svg>
